<?xml version="1.0"?>
<svg xmlns="http://www.w3.org/2000/svg" xmlns:xlink="http://www.w3.org/1999/xlink" viewBox="0 0 64 64" width="512" height="512"><defs><linearGradient id="gradient_ice" x1="10.867" y1="63.092" x2="56.533" y2="5.586" gradientUnits="userSpaceOnUse"><stop offset="0" stop-color="#fff200"/><stop offset="1" stop-color="#cd118c"/></linearGradient><linearGradient id="gradient_ice-2" x1="3.545" y1="57.277" x2="49.211" y2="-0.229" xlink:href="#gradient_ice"/><linearGradient id="gradient_ice-3" x1="10.39" y1="62.713" x2="56.056" y2="5.207" xlink:href="#gradient_ice"/><linearGradient id="gradient_ice-4" x1="10.146" y1="62.519" x2="55.813" y2="5.013" xlink:href="#gradient_ice"/></defs><g id="Ai-bug-chip-processor-technology"><path d="M26,32.959V40a1,1,0,0,0,1,1H37a1,1,0,0,0,1-1V30a1,1,0,0,0-1-1H30.009a1,1,0,0,0-.7.287L26.3,32.246A1,1,0,0,0,26,32.959Zm2,.419L30.418,31H36v8H28Z" style="fill:url(#gradient_ice)"/><circle cx="26" cy="29" r="1" style="fill:url(#gradient_ice-2)"/><path d="M58,25a1,1,0,0,0,1-1V16H57v7H51V21a5,5,0,0,0-5-5H44.95a10,10,0,0,0-4.4-7.31l1.31-2.18A1,1,0,0,0,42,6V2H40V5.72L38.78,7.75A9.916,9.916,0,0,0,35,7H29a9.916,9.916,0,0,0-3.78.75L24,5.72V2H22V6a1,1,0,0,0,.14.51l1.31,2.18A10,10,0,0,0,19.05,16H18a5,5,0,0,0-5,5v2H7V16H5v8a1,1,0,0,0,1,1h7v6H6a1,1,0,0,0-1,1v9H7V33h6V43c0,.34.03.67.05,1H6a1,1,0,0,0-1,1V55H7V46h6.26a18.975,18.975,0,0,0,37.48,0H57v9h2V45a1,1,0,0,0-1-1H50.95c.02-.33.05-.66.05-1V33h6v8h2V32a1,1,0,0,0-1-1H51V25ZM29,9h6a8.022,8.022,0,0,1,7.94,7H21.06A8.022,8.022,0,0,1,29,9ZM49,43A17,17,0,0,1,33,59.95V56H31v3.95A17,17,0,0,1,15,43V21a3.009,3.009,0,0,1,3-3H46a3.009,3.009,0,0,1,3,3Z" style="fill:url(#gradient_ice-3)"/><path d="M47,36V34H42V31h4V29H42V26a1,1,0,0,0-1-1H38V21H36v4H33V20H31v5H28V21H26v4H23a1,1,0,0,0-1,1v3H18v2h4v3H17v2h5v3H18v2h4v3a1,1,0,0,0,1,1h3v4h2V45h3v5h2V45h3v4h2V45h3a1,1,0,0,0,1-1V41h4V39H42V36Zm-7,7H24V27H40Z" style="fill:url(#gradient_ice-4)"/></g></svg>
